<?xml version="1.0" standalone="no"?>
<!DOCTYPE svg PUBLIC "-//W3C//DTD SVG 20010904//EN" "http://www.w3.org/TR/2001/REC-SVG-20010904/DTD/svg10.dtd">
<svg xmlns="http://www.w3.org/2000/svg" version="1.0" width="600" height="580" viewBox="0 0 600.000000 580.000000" preserveAspectRatio="xMidYMid meet">
<g transform="translate(0.000000,580.000000) scale(0.100000,-0.100000)" fill="#1A3A5C" stroke="none">
<path d="M4430 4823 c-108 -10 -379 -83 -535 -145 -113 -45 -302 -142 -388 -200 -77 -53 -177 -147 -233 -222 -51 -67 -143 -251 -197 -391 -33 -86 -78 -225 -147 -454 -18 -57 -35 -100 -40 -95 -5 5 -18 47 -30 94 -67 263 -158 546 -237 734 -108 255 -261 405 -433 423 -125 13 -268 -61 -408 -212 -82 -87 -131 -169 -181 -300 -64 -167 -45 -308 57 -412 23 -23 124 -97 224 -164 204 -137 317 -220 558 -417 204 -167 196 -160 185 -171 -6 -5 -217 -11 -470 -14 -428 -5 -501 -9 -675 -38 -163 -27 -345 -109 -479 -215 -81 -64 -201 -194 -247 -266 -115 -182 -90 -412 61 -564 76 -77 143 -105 269 -112 165 -9 314 34 561 163 229 119 734 428 1005 615 119 83 120 83 139 71 12 -7 7 -68 -28 -380 -53 -473 -65 -654 -57 -866 10 -312 57 -479 168 -601 64 -69 127 -96 239 -102 113 -6 222 21 354 88 254 128 322 227 281 410 -23 99 -223 609 -305 775 -10 22 -46 101 -79 175 -33 74 -96 211 -141 304 -44 94 -79 172 -77 174 2 2 50 -23 107 -54 276 -153 526 -247 819 -308 186 -39 293 -50 510 -50 258 0 372 18 502 77 160 73 192 168 122 368 -45 129 -115 269 -193 386 -71 106 -102 135 -190 176 -51 24 -80 31 -155 34 -147 8 -489 -40 -1014 -143 -156 -31 -286 -53 -289 -51 -2 3 26 29 64 59 37 30 124 99 193 153 518 410 801 719 1017 1110 122 221 141 375 58 472 -54 63 -156 96 -265 86z m125 -200 c42 -41 -14 -196 -137 -385 -177 -271 -352 -462 -668 -732 -229 -195 -535 -430 -594 -457 -21 -10 -29 -7 -60 17 -20 16 -39 37 -42 46 -10 34 160 578 245 783 65 156 114 229 221 335 109 108 152 136 347 224 175 80 256 110 418 151 148 38 244 45 270 18z m-2298 -248 c156 -78 325 -491 487 -1190 30 -132 15 -162 -53 -103 -368 314 -532 441 -762 590 -162 105 -187 139 -176 241 17 168 190 412 329 466 71 27 114 26 175 -4z m2467 -1427 c74 -22 152 -113 228 -269 76 -154 110 -248 106 -293 -2 -24 -11 -35 -38 -48 -109 -53 -311 -75 -546 -59 -321 21 -572 84 -894 222 -149 64 -360 177 -367 197 -10 25 24 44 104 58 210 37 316 56 528 94 333 60 668 108 759 109 43 1 97 -4 120 -11z m-2084 -258 c22 -34 8 -49 -110 -124 -484 -308 -989 -591 -1166 -655 -253 -91 -412 -57 -485 104 -21 46 -24 126 -7 176 41 123 217 304 378 392 194 106 378 126 1133 123 209 -1 249 -3 257 -16z m401 -337 c117 -245 241 -520 330 -728 50 -115 96 -223 104 -240 7 -16 32 -77 55 -135 80 -199 89 -269 40 -317 -82 -81 -276 -169 -396 -180 -84 -8 -128 2 -170 39 -41 37 -58 67 -84 151 -41 137 -45 176 -45 447 1 278 8 369 65 831 17 130 30 241 30 248 0 27 14 4 71 -116z"/>
</g>
</svg>