<?xml version="1.0" standalone="no"?>
<!DOCTYPE svg PUBLIC "-//W3C//DTD SVG 20010904//EN" "http://www.w3.org/TR/2001/REC-SVG-20010904/DTD/svg10.dtd">
<svg xmlns="http://www.w3.org/2000/svg" version="1.0" width="600" height="424" viewBox="0 0 600.000000 424.000000" preserveAspectRatio="xMidYMid meet">
<g transform="translate(0.000000,424.000000) scale(0.050000,-0.050000)" fill="#1A3A5C" stroke="none">
<path d="M8410 5052 c-232 -74 -320 -160 -392 -382 -24 -77 -47 -131 -50 -120 -95 387 -205 507 -356 388 -171 -135 -152 -226 83 -402 l195 -146 -250 -12 c-137 -7 -252 -14 -255 -15 -125 -71 -212 -216 -182 -303 56 -160 244 -123 601 121 147 100 141 107 113 -133 -50 -427 54 -573 300 -423 89 54 81 111 -51 407 l-98 221 114 -57 c351 -175 702 -99 587 128 -86 169 -132 182 -439 118 -217 -45 -216 -45 -95 44 417 306 532 679 175 566z m150 -78 c0 -103 -455 -564 -518 -525 -23 14 70 295 126 381 65 99 392 220 392 144z m-771 -99 c36 -56 155 -417 142 -431 -6 -5 -50 27 -98 71 -48 44 -125 106 -170 136 -99 65 -107 118 -31 207 61 73 116 79 157 17z m851 -475 c25 0 105 -176 90 -199 -19 -32 -270 -25 -391 11 -119 35 -268 106 -254 120 15 15 483 84 512 76 14 -4 34 -8 43 -8z m-740 -88 c0 -12 -382 -227 -468 -263 -151 -62 -235 50 -122 163 85 84 164 106 385 107 113 1 205 -3 205 -7z m219 -319 c118 -277 119 -283 42 -322 -143 -74 -186 -22 -184 225 1 162 21 353 34 339 4 -3 52 -112 108 -242z"/>
<path d="M3730 4890 c-9 -22 -94 -227 -190 -455 l-175 -415 54 0 c49 0 60 15 122 171 l69 171 137 -6 136 -6 66 -160 c57 -137 74 -161 119 -166 66 -8 79 -54 -125 428 -98 230 -182 432 -188 448 -8 24 -13 22 -25 -10z m24 -426 c-102 -8 -102 -8 -51 115 l44 104 43 -106 43 -107 -79 -6z"/>
<path d="M2510 4861 c-212 -87 -159 -349 89 -439 177 -64 231 -168 135 -259 -63 -58 -169 -56 -260 5 -69 47 -72 47 -104 12 -82 -90 249 -203 386 -132 224 116 134 395 -156 482 -118 35 -156 134 -80 210 48 48 128 51 209 9 55 -29 62 -28 85 3 59 81 -170 164 -304 109z"/>
<path d="M4680 4450 l0 -430 50 0 c50 0 50 1 50 190 l0 190 55 0 c51 0 63 -17 143 -190 81 -178 91 -190 146 -190 33 0 56 7 52 15 -60 118 -176 372 -171 374 309 179 180 471 -210 471 l-115 0 0 -430z m341 272 c105 -105 19 -222 -162 -222 l-79 0 0 140 0 140 92 0 c74 0 102 -11 149 -58z"/>
<path d="M5780 4451 l0 -431 50 0 50 0 0 410 c0 226 0 417 1 425 0 8 -23 18 -50 21 l-51 7 0 -432z"/>
<path d="M6420 4830 c0 -49 4 -50 145 -50 l145 0 -7 -380 -6 -380 63 0 63 0 -6 380 -7 380 145 0 c141 0 145 1 145 50 l0 50 -340 0 -340 0 0 -50z"/>
<path d="M9248 4861 c-211 -90 -158 -348 91 -439 175 -64 221 -146 140 -249 -55 -70 -165 -72 -265 -5 -67 46 -72 47 -103 14 -93 -104 261 -213 398 -123 180 119 140 329 -82 430 -159 72 -171 79 -195 116 -32 51 9 141 74 164 52 18 73 14 194 -37 18 -7 40 3 54 26 47 76 -187 155 -306 103z"/>
</g>
</svg>